<?xml version="1.0"?>
<svg xmlns="http://www.w3.org/2000/svg" viewBox="0 0 64 64" width="512" height="512"><g id="Outline"><path d="M26.458,10.7l-.5-1.935a23.678,23.678,0,0,0-2.973.983l.753,1.853A21.893,21.893,0,0,1,26.458,10.7Z"/><path d="M52.811,20.039a24.316,24.316,0,0,0-1.734-2.6L49.488,18.65a22.339,22.339,0,0,1,1.59,2.387Z"/><path d="M19.658,52.587a23.994,23.994,0,0,0,2.779,1.431l.8-1.834a21.939,21.939,0,0,1-2.545-1.312Z"/><path d="M10.81,26.062l-1.926-.539a24.126,24.126,0,0,0-.643,3.062l1.98.283A22.119,22.119,0,0,1,10.81,26.062Z"/><path d="M16.586,16.3l-1.4-1.428A24.217,24.217,0,0,0,13.1,17.207l1.574,1.232A22.213,22.213,0,0,1,16.586,16.3Z"/><path d="M49.02,15.079a24.364,24.364,0,0,0-2.343-2.07l-1.225,1.582a21.875,21.875,0,0,1,2.149,1.9Z"/><path d="M53.115,38.2l1.919.563a24,24,0,0,0,.681-3.053L53.739,35.4A22.084,22.084,0,0,1,53.115,38.2Z"/><path d="M47.218,47.888,48.6,49.331a24.274,24.274,0,0,0,2.113-2.3l-1.559-1.254A22.063,22.063,0,0,1,47.218,47.888Z"/><path d="M32,10h.143V8H32a24.414,24.414,0,0,0-2.971.182l.243,1.984A22.635,22.635,0,0,1,32,10Z"/><path d="M53.262,26.327l1.932-.515a23.93,23.93,0,0,0-1-2.965l-1.849.763A21.869,21.869,0,0,1,53.262,26.327Z"/><path d="M50.8,43.428l1.708,1.041a23.971,23.971,0,0,0,1.448-2.77l-1.829-.808A22,22,0,0,1,50.8,43.428Z"/><path d="M32,54l-.407,0-.041,2L32,56a24.848,24.848,0,0,0,2.675-.146l-.218-1.989A22.4,22.4,0,0,1,32,54Z"/><path d="M42.607,51.278l.966,1.752a24.349,24.349,0,0,0,2.635-1.685l-1.185-1.612A22.116,22.116,0,0,1,42.607,51.278Z"/><path d="M53.815,29.139A22.124,22.124,0,0,1,54,32c0,.183,0,.364-.006.546l2,.047c0-.2.007-.4.007-.593a24.323,24.323,0,0,0-.2-3.119Z"/><path d="M13.057,20.806l-1.721-1.02a24.134,24.134,0,0,0-1.414,2.787l1.839.787A21.938,21.938,0,0,1,13.057,20.806Z"/><path d="M37.277,53.363l.479,1.942a23.807,23.807,0,0,0,2.983-.946L40.012,52.5A21.876,21.876,0,0,1,37.277,53.363Z"/><path d="M21.155,12.854l-.987-1.738a24.352,24.352,0,0,0-2.614,1.717l1.2,1.6A22.3,22.3,0,0,1,21.155,12.854Z"/><path d="M25.381,55.076a24.164,24.164,0,0,0,3.056.662l.3-1.978a22.15,22.15,0,0,1-2.8-.608Z"/><path d="M44.086,11.261a23.9,23.9,0,0,0-2.8-1.4l-.775,1.844a22.167,22.167,0,0,1,2.562,1.279Z"/><path d="M11.042,43.7a24.238,24.238,0,0,0,1.7,2.624l1.605-1.193a22.28,22.28,0,0,1-1.561-2.407Z"/><path d="M14.771,48.709a24.292,24.292,0,0,0,2.318,2.1l1.243-1.567a22.046,22.046,0,0,1-2.125-1.925Z"/><path d="M38.332,8.845a23.9,23.9,0,0,0-3.064-.624L35,10.2a21.873,21.873,0,0,1,2.809.571Z"/><path d="M10,32.005l0-.28L8,31.7,8,32a24.166,24.166,0,0,0,.165,2.823l1.986-.232A22.372,22.372,0,0,1,10,32.005Z"/><path d="M10.67,37.409l-1.94.49A24.1,24.1,0,0,0,9.7,40.877l1.859-.74A21.8,21.8,0,0,1,10.67,37.409Z"/><path d="M61.254,25.324a7.548,7.548,0,0,0-2.388-3.5,8.2,8.2,0,0,1-1.633-1.974,8.35,8.35,0,0,1-.545-2.56,7.507,7.507,0,0,0-1.233-4,7.518,7.518,0,0,0-3.634-2.1,8.288,8.288,0,0,1-2.363-1.092,8.264,8.264,0,0,1-1.577-2.049,7.531,7.531,0,0,0-2.86-3.092,7.468,7.468,0,0,0-4.152-.309,8.363,8.363,0,0,1-2.637.038,8.1,8.1,0,0,1-2.266-1.14A7.685,7.685,0,0,0,32,2a7.685,7.685,0,0,0-3.966,1.555A8.134,8.134,0,0,1,25.768,4.7a8.426,8.426,0,0,1-2.637-.039,7.485,7.485,0,0,0-4.152.309,7.523,7.523,0,0,0-2.861,3.093,8.268,8.268,0,0,1-1.576,2.049A8.288,8.288,0,0,1,12.179,11.2a7.521,7.521,0,0,0-3.634,2.1,7.507,7.507,0,0,0-1.233,4,8.35,8.35,0,0,1-.545,2.56,8.184,8.184,0,0,1-1.634,1.974,7.551,7.551,0,0,0-2.387,3.5,7.447,7.447,0,0,0,.623,4.082A8.454,8.454,0,0,1,4,32a8.454,8.454,0,0,1-.631,2.594,7.447,7.447,0,0,0-.623,4.082,7.548,7.548,0,0,0,2.388,3.5,8.2,8.2,0,0,1,1.633,1.974,8.35,8.35,0,0,1,.545,2.56,7.507,7.507,0,0,0,1.233,4A7.518,7.518,0,0,0,12.179,52.8a8.288,8.288,0,0,1,2.363,1.092,8.264,8.264,0,0,1,1.577,2.049,7.531,7.531,0,0,0,2.86,3.092,7.485,7.485,0,0,0,4.152.309,8.363,8.363,0,0,1,2.637-.038,8.1,8.1,0,0,1,2.266,1.14A7.685,7.685,0,0,0,32,62a7.685,7.685,0,0,0,3.966-1.555A8.134,8.134,0,0,1,38.232,59.3a8.518,8.518,0,0,1,2.637.039,7.457,7.457,0,0,0,4.152-.309,7.523,7.523,0,0,0,2.861-3.093,8.268,8.268,0,0,1,1.576-2.049A8.288,8.288,0,0,1,51.821,52.8a7.521,7.521,0,0,0,3.634-2.095,7.507,7.507,0,0,0,1.233-4,8.35,8.35,0,0,1,.545-2.56,8.184,8.184,0,0,1,1.634-1.974,7.551,7.551,0,0,0,2.387-3.5,7.447,7.447,0,0,0-.623-4.082A8.454,8.454,0,0,1,60,32a8.454,8.454,0,0,1,.631-2.594A7.447,7.447,0,0,0,61.254,25.324Zm-2.512,9.928a6.009,6.009,0,0,1,.562,2.98,6.089,6.089,0,0,1-1.85,2.529,9.669,9.669,0,0,0-2.022,2.521,9.874,9.874,0,0,0-.731,3.2,6.069,6.069,0,0,1-.808,2.975,6.088,6.088,0,0,1-2.733,1.455,9.807,9.807,0,0,0-2.95,1.416,9.772,9.772,0,0,0-2.023,2.551,6.059,6.059,0,0,1-2.036,2.353,6.039,6.039,0,0,1-3.061.122,10.041,10.041,0,0,0-3.3,0,9.621,9.621,0,0,0-2.889,1.4A6.1,6.1,0,0,1,32,60a6.1,6.1,0,0,1-2.9-1.247,9.628,9.628,0,0,0-2.888-1.4,6.227,6.227,0,0,0-1.381-.141,17.527,17.527,0,0,0-1.92.142,6.05,6.05,0,0,1-3.061-.122,6.076,6.076,0,0,1-2.036-2.353,9.763,9.763,0,0,0-2.023-2.55,9.781,9.781,0,0,0-2.949-1.417,6.064,6.064,0,0,1-2.733-1.455A6.068,6.068,0,0,1,9.3,46.483a9.879,9.879,0,0,0-.73-3.2,9.689,9.689,0,0,0-2.022-2.52A6.092,6.092,0,0,1,4.7,38.232a6.009,6.009,0,0,1,.562-2.98A10,10,0,0,0,6,32a10,10,0,0,0-.742-3.252,6.009,6.009,0,0,1-.562-2.98,6.089,6.089,0,0,1,1.85-2.529,9.669,9.669,0,0,0,2.022-2.521,9.874,9.874,0,0,0,.731-3.2,6.069,6.069,0,0,1,.808-2.975,6.088,6.088,0,0,1,2.733-1.455,9.807,9.807,0,0,0,2.95-1.416A9.748,9.748,0,0,0,17.812,9.12a6.069,6.069,0,0,1,2.037-2.353,6.051,6.051,0,0,1,3.061-.122,9.933,9.933,0,0,0,3.3,0,9.621,9.621,0,0,0,2.889-1.4A6.1,6.1,0,0,1,32,4a6.1,6.1,0,0,1,2.9,1.247,9.628,9.628,0,0,0,2.888,1.4,9.939,9.939,0,0,0,3.3,0,6.03,6.03,0,0,1,3.061.122A6.076,6.076,0,0,1,46.187,9.12a9.763,9.763,0,0,0,2.023,2.55,9.781,9.781,0,0,0,2.949,1.417,6.064,6.064,0,0,1,2.733,1.455,6.068,6.068,0,0,1,.809,2.975,9.879,9.879,0,0,0,.73,3.2,9.689,9.689,0,0,0,2.022,2.52,6.092,6.092,0,0,1,1.851,2.53,6.009,6.009,0,0,1-.562,2.98A10,10,0,0,0,58,32,10,10,0,0,0,58.742,35.252Z"/><path d="M35.324,28,32,17.758,28.676,28H17.917l8.706,6.312L23.3,44.54,32,38.219l8.7,6.321L37.377,34.312,46.083,28ZM36.9,39.3,32,35.746,27.1,39.3l1.87-5.757L24.083,30H30.13L32,24.238,33.87,30h6.047l-4.891,3.547Z"/><path d="M51,32A19,19,0,1,0,32,51,19.021,19.021,0,0,0,51,32ZM32,49A17,17,0,1,1,49,32,17.019,17.019,0,0,1,32,49Z"/></g></svg>
